#!OML:ASF F:\VICON\USERDATA\INSTALL\rory3\rory3.ASF
:FULLY-SPECIFIED
:DEGREES
464
root 1.075 17.5113 21.875 -2.00585 -0.0733012 3.14562
lowerback 6.87349 1.59204 -7.18372
upperback 0.805116 1.63819 1.79752
thorax -3.27798 0.921527 5.7669
lowerneck -15.9991 -4.50926 -13.6046
upperneck 34.1239 -4.30018 5.63963
head 15.0451 -2.83238 3.98095
rclavicle -7.70291e-016 -1.59028e-015
rhumerus -30.6837 -14.8466 -72.317
rradius 31.7861
rwrist -11.2058
rhand -11.3604 21.6068
rfingers 7.12502
rthumb 14.6733 -7.85402
lclavicle -7.70291e-016 -1.59028e-015
lhumerus -39.6768 17.343 76.0084
lradius 24.0136
lwrist -11.7424
lhand 1.90216 32.814
lfingers 7.12502
lthumb 27.411 60.8401
rfemur -9.68577 -6.51161 14.9637
rtibia 72.9039
rfoot 11.483 -10.5018
rtoes 29.174
lfemur -15.096 -0.20177 -25.874
ltibia 31.974
lfoot -10.9542 -4.15869
ltoes -1.71527
465
root 1.08419 17.5193 22.0509 -2.13644 -0.137769 3.17705
lowerback 6.87028 1.53782 -7.31193
upperback 0.941985 1.56348 1.90291
thorax -3.1278 0.876653 5.96086
lowerneck -16.2874 -4.50518 -13.572
upperneck 34.3276 -4.17971 5.40904
head 15.1884 -2.81183 3.90269
rclavicle 1.05604e-014 7.95139e-016
rhumerus -30.6578 -15.0204 -72.1719
rradius 31.3582
rwrist -10.847
rhand -11.048 20.6725
rfingers 7.12502
rthumb 14.9743 -8.76613
lclavicle 1.05604e-014 7.95139e-016
lhumerus -39.3931 17.6718 76.0037
lradius 24.1307
lwrist -11.8223
lhand 1.59385 32.7786
lfingers 7.12502
lthumb 27.1161 60.851
rfemur -11.0043 -6.68984 15.015
rtibia 74.0737
rfoot 9.44936 -10.1303
rtoes 28.1034
lfemur -14.1934 -0.317344 -25.9757
ltibia 31.738
lfoot -11.2579 -3.80867
ltoes -2.00262
466
root 1.09689 17.5257 22.2189 -2.28198 -0.0791019 3.20281
lowerback 6.8739 1.42104 -7.37318
upperback 1.0926 1.40973 1.99529
thorax -2.95156 0.789531 6.11079
lowerneck -16.3358 -4.4668 -13.6445
upperneck 34.3539 -4.07841 5.37135
head 15.2015 -2.78437 3.91777
rclavicle -1.16786e-015 1.74931e-014
rhumerus -30.633 -15.2473 -72.0483
rradius 30.8631
rwrist -10.5104
rhand -10.9275 19.7769
rfingers 7.12502
rthumb 15.0903 -9.65304
lclavicle -1.16786e-015 1.74931e-014
lhumerus -39.1097 17.5541 76.2591
lradius 24.4753
lwrist -11.4585
lhand 1.49813 33.1852
lfingers 7.12502
lthumb 27.0245 61.2718
rfemur -12.3009 -6.99295 15.021
rtibia 75.0392
rfoot 7.77761 -9.84111
rtoes 26.694
lfemur -13.3389 -0.493147 -26.1034
ltibia 31.536
lfoot -11.4686 -3.53337
ltoes -1.59077
467
root 1.11983 17.5301 22.3841 -2.37369 0.033384 3.59122
lowerback 6.95362 1.32098 -7.63436
upperback 1.11104 1.24858 1.91046
thorax -2.95435 0.710912 6.18568
lowerneck -16.3457 -4.40372 -13.6886
upperneck 34.5504 -3.98029 5.3923
head 15.2871 -2.75298 3.95909
rclavicle 2.21396e-014 7.95139e-015
rhumerus -30.8788 -15.7146 -71.8102
rradius 30.3098
rwrist -10.0377
rhand -10.7563 19.7166
rfingers 7.12502
rthumb 15.2552 -9.70091
lclavicle 2.21396e-014 7.95139e-015
lhumerus -38.9242 17.3112 76.4256
lradius 24.716
lwrist -11.1787
lhand 1.1634 33.4144
lfingers 7.12502
lthumb 26.7042 61.5502
rfemur -13.5647 -7.40567 14.5034
rtibia 75.8115
rfoot 6.27085 -9.27826
rtoes 24.6598
lfemur -12.5153 -0.724433 -26.7045
ltibia 31.3632
lfoot -11.823 -3.17151
ltoes -1.72525
468
root 1.13578 17.5298 22.5492 -2.36066 0.0439959 3.88504
lowerback 6.94792 1.25398 -7.906
upperback 1.12744 1.13944 1.89611
thorax -2.92079 0.657309 6.3371
lowerneck -16.3919 -4.35183 -13.7739
upperneck 34.7103 -3.85742 5.3595
head 15.362 -2.7223 3.98735
rclavicle -5.96354e-016 8.74653e-015
rhumerus -31.0598 -16.1235 -71.5424
rradius 29.9608
rwrist -9.68607
rhand -10.458 19.5638
rfingers 7.12502
rthumb 15.5426 -9.83161
lclavicle -5.96354e-016 8.74653e-015
lhumerus -38.7536 17.1538 76.5944
lradius 25.1175
lwrist -10.99
lhand 1.04141 33.6044
lfingers 7.12502
lthumb 26.5875 61.758
rfemur -14.914 -7.63142 14.2291
rtibia 76.4185
rfoot 4.70749 -8.71929
rtoes 22.6759
lfemur -11.7814 -0.89107 -27.1533
ltibia 31.1683
lfoot -12.1548 -2.7905
ltoes -1.67497
469
root 1.14692 17.5279 22.7138 -2.34582 0.222468 4.10823
lowerback 7.03105 1.10146 -8.18599
upperback 1.03902 0.906646 1.92708
thorax -3.02541 0.55209 6.55319
lowerneck -16.2456 -4.22675 -13.7086
upperneck 34.8166 -3.6567 5.19144
head 15.3474 -2.65745 3.94356
rclavicle 1.03368e-014 1.51076e-014
rhumerus -31.388 -16.3918 -71.2586
rradius 29.6524
rwrist -9.42882
rhand -10.4918 19.51
rfingers 7.12502
rthumb 15.51 -9.88792
lclavicle 1.03368e-014 1.51076e-014
lhumerus -38.9063 16.7825 76.7795
lradius 25.7725
lwrist -10.5487
lhand 0.707688 33.307
lfingers 7.12502
lthumb 26.268 61.5086
rfemur -16.2178 -7.99629 14.0703
rtibia 76.871
rfoot 3.23482 -8.21468
rtoes 21.9409
lfemur -11.0655 -1.08071 -27.498
ltibia 30.9879
lfoot -12.4386 -2.59524
ltoes -1.28186
470
root 1.1573 17.5315 22.8795 -2.30057 0.370485 4.64092
lowerback 7.12018 0.979986 -8.7386
upperback 0.881084 0.685255 1.80942
thorax -3.20762 0.461661 6.76655
lowerneck -16.3398 -4.1657 -13.3995
upperneck 35.1734 -3.55112 4.89146
head 15.513 -2.62565 3.79018
rclavicle 1.63997e-015 2.62396e-014
rhumerus -31.9877 -16.753 -71.0051
rradius 29.4466
rwrist -9.1911
rhand -10.7872 19.7479
rfingers 7.12502
rthumb 15.2255 -9.67184
lclavicle 1.63997e-015 2.62396e-014
lhumerus -39.0878 16.1289 76.9774
lradius 26.3423
lwrist -9.96856
lhand -0.231741 32.4174
lfingers 7.12502
lthumb 25.3684 60.7498
rfemur -17.639 -8.34241 13.5515
rtibia 77.205
rfoot 2.26031 -7.62492
rtoes 22.2351
lfemur -10.4457 -1.19831 -28.181
ltibia 30.903
lfoot -12.7968 -2.41307
ltoes -1.0433
471
root 1.16139 17.5319 23.0406 -2.19376 0.338295 4.99866
lowerback 7.1387 0.932331 -9.15517
upperback 0.84758 0.583729 1.74008
thorax -3.23826 0.418702 6.94172
lowerneck -15.439 -3.68503 -13.362
upperneck 34.6663 -3.03843 5.05944
head 14.9891 -2.36847 3.93349
rclavicle -7.55382e-015 6.36111e-015
rhumerus -32.301 -17.0078 -70.8928
rradius 29.2282
rwrist -9.22793
rhand -10.9156 20.0907
rfingers 7.12502
rthumb 15.1017 -9.33834
lclavicle -7.55382e-015 6.36111e-015
lhumerus -38.8457 15.5957 77.2317
lradius 26.7613
lwrist -9.59786
lhand -0.736225 31.7423
lfingers 7.12502
lthumb 24.885 60.1424
rfemur -19.193 -8.40644 13.3595
rtibia 77.3773
rfoot 1.39094 -7.05377
rtoes 21.826
lfemur -9.98241 -1.25793 -28.6263
ltibia 30.8879
lfoot -13.0729 -2.1856
ltoes -0.921199
472
root 1.16472 17.5246 23.1975 -2.06822 0.384494 5.0023
lowerback 7.07825 0.832761 -9.24872
upperback 0.976222 0.457041 1.81518
thorax -3.04612 0.342704 7.08859
lowerneck -16.6413 -3.94039 -13.2701
upperneck 35.1194 -3.17812 4.81388
head 15.5028 -2.45738 3.79936
rclavicle -9.44227e-015 -1.90833e-014
rhumerus -32.1914 -17.2109 -70.8279
rradius 28.9039
rwrist -9.296
rhand -10.885 20.3554
rfingers 7.12502
rthumb 15.1313 -9.07148
lclavicle -9.44227e-015 -1.90833e-014
lhumerus -38.2052 15.3043 77.5575
lradius 27.0515
lwrist -9.37595
lhand -0.652907 31.3826
lfingers 7.12502
lthumb 24.9649 59.7717
rfemur -20.6272 -8.50181 13.5908
rtibia 77.3259
rfoot -0.0459949 -6.4827
rtoes 20.9174
lfemur -9.59167 -1.38805 -28.6776
ltibia 30.9278
lfoot -13.306 -2.06308
ltoes -1.15022
473
root 1.16627 17.5173 23.363 -1.87012 0.48931 5.12853
lowerback 6.83531 0.72379 -9.49554
upperback 1.01715 0.320642 1.8721
thorax -2.84202 0.265771 7.30413
lowerneck -16.902 -3.99163 -13.4016
upperneck 35.1497 -3.21489 4.93184
head 15.5902 -2.47402 3.86733
rclavicle 9.93923e-016 1.82882e-014
rhumerus -32.2881 -17.4068 -70.6421
rradius 28.6388
rwrist -9.2896
rhand -10.8485 20.2664
rfingers 7.12502
rthumb 15.1664 -9.15779
lclavicle 9.93923e-016 1.82882e-014
lhumerus -37.781 14.8956 77.8724
lradius 27.382
lwrist -9.03594
lhand -0.584223 31.1911
lfingers 7.12502
lthumb 25.0307 59.5711
rfemur -22.0162 -8.60034 13.6801
rtibia 77.0574
rfoot -1.67907 -5.9145
rtoes 20.5311
lfemur -9.30363 -1.50297 -28.8605
ltibia 31.1168
lfoot -13.7202 -1.95398
ltoes -1.64077
474
root 1.18084 17.5082 23.5151 -1.76015 0.778221 5.30632
lowerback 6.99745 0.599596 -9.52881
upperback 0.840005 0.128268 1.83252
thorax -3.08201 0.189511 7.3006
lowerneck -16.4912 -3.96404 -13.4593
upperneck 35.0633 -3.25963 5.03255
head 15.4595 -2.48738 3.91092
rclavicle 1.63997e-015 3.49861e-014
rhumerus -32.8074 -17.509 -70.3766
rradius 28.44
rwrist -9.37593
rhand -10.8287 20.1065
rfingers 7.12502
rthumb 15.1855 -9.31626
lclavicle 1.63997e-015 3.49861e-014
lhumerus -37.9878 13.7808 78.3048
lradius 28.2581
lwrist -8.16556
lhand -0.48089 31.2987
lfingers 7.12502
lthumb 25.1297 59.6648
rfemur -23.2434 -8.90339 13.5818
rtibia 76.57
rfoot -2.87496 -5.38018
rtoes 20.8247
lfemur -8.92662 -1.64113 -29.1568
ltibia 31.3793
lfoot -14.1741 -1.90447
ltoes -2.052
475
root 1.17539 17.5013 23.6675 -1.62601 0.798322 5.14282
lowerback 7.05113 0.539372 -9.43609
upperback 0.78638 0.0499045 1.89569
thorax -3.15328 0.155529 7.32345
lowerneck -16.483 -3.9589 -13.259
upperneck 35.0976 -3.25633 4.85146
head 15.4644 -2.48567 3.79887
rclavicle -4.72114e-015 -1.90833e-014
rhumerus -33.1569 -17.7473 -70.2288
rradius 28.3111
rwrist -9.42709
rhand -10.7132 20.2645
rfingers 7.12502
rthumb 15.2968 -9.14977
lclavicle -4.72114e-015 -1.90833e-014
lhumerus -38.0645 12.2446 78.9167
lradius 29.4547
lwrist -6.95743
lhand -0.27906 31.5241
lfingers 7.12502
lthumb 25.3231 59.8629
rfemur -24.5504 -8.73483 14.1369
rtibia 75.879
rfoot -3.95549 -5.39274
rtoes 20.5143
lfemur -8.64016 -1.566 -28.9384
ltibia 31.5935
lfoot -14.54 -1.9402
ltoes -2.14221
